<?xml version="1.0" standalone="no"?>
<!DOCTYPE svg PUBLIC "-//W3C//DTD SVG 20010904//EN"
 "http://www.w3.org/TR/2001/REC-SVG-20010904/DTD/svg10.dtd">
<svg version="1.0" xmlns="http://www.w3.org/2000/svg"
 width="512.000000pt" height="512.000000pt" viewBox="0 0 512.000000 512.000000"
 preserveAspectRatio="xMidYMid meet">

<g transform="translate(0.000000,512.000000) scale(0.100000,-0.100000)"
fill="#000000" stroke="none">
<path d="M2103 5102 c-124 -44 -205 -135 -232 -260 -14 -67 -15 -758 -1 -832
22 -114 91 -202 200 -254 l65 -31 425 0 425 0 65 31 c109 52 178 140 200 254
14 74 13 765 -1 832 -23 109 -95 198 -197 246 l-57 27 -420 2 c-384 3 -424 1
-472 -15z"/>
<path d="M2130 3246 c-73 -16 -108 -36 -164 -92 -99 -99 -106 -136 -106 -594
0 -458 7 -495 106 -594 99 -99 136 -106 594 -106 458 0 495 7 594 106 99 99
106 136 106 594 0 458 -7 495 -106 594 -57 57 -101 81 -179 95 -83 16 -773 13
-845 -3z"/>
<path d="M2155 1391 c-141 -22 -258 -137 -285 -281 -14 -74 -13 -765 1 -832
23 -109 95 -198 197 -246 l57 -27 435 0 435 0 57 27 c102 48 174 137 197 246
14 67 15 758 1 832 -22 114 -91 202 -200 254 l-65 31 -390 2 c-214 1 -413 -2
-440 -6z"/>
</g>
</svg>
