<?xml version="1.0" standalone="no"?>
<!DOCTYPE svg PUBLIC "-//W3C//DTD SVG 20010904//EN"
 "http://www.w3.org/TR/2001/REC-SVG-20010904/DTD/svg10.dtd">
<svg version="1.0" xmlns="http://www.w3.org/2000/svg"
 width="512.000000pt" height="512.000000pt" viewBox="0 0 512.000000 512.000000"
 preserveAspectRatio="xMidYMid meet">

<g transform="translate(0.000000,512.000000) scale(0.100000,-0.100000)"
fill="#000000" stroke="none">
<path d="M2332 4520 c-168 -45 -334 -174 -401 -310 -60 -125 -61 -128 -61
-970 0 -843 1 -845 62 -970 46 -95 159 -204 265 -257 115 -58 207 -77 346 -71
275 12 491 160 578 398 l24 65 0 835 0 835 -24 65 c-64 175 -197 301 -386 366
-109 37 -293 44 -403 14z"/>
<path d="M1230 2637 c0 -280 25 -410 115 -592 65 -133 125 -213 242 -325 141
-136 304 -233 498 -296 l100 -33 3 -310 2 -311 -320 0 -320 0 0 -145 0 -145
960 0 960 0 0 145 0 145 -320 0 -320 0 2 311 3 311 85 25 c117 33 289 119 390
193 222 163 376 382 446 632 24 85 27 113 31 326 l5 232 -161 0 -161 0 0 -185
c0 -202 -13 -293 -56 -399 -58 -144 -182 -297 -313 -385 -89 -61 -231 -125
-331 -151 -109 -27 -297 -37 -411 -21 -333 48 -631 268 -745 549 -48 120 -56
168 -61 385 l-5 207 -159 0 -159 0 0 -163z"/>
</g>
</svg>
